<?xml version="1.0" encoding="UTF-8" standalone="no"?>
<!-- Generator: Gravit.io -->
<svg xmlns="http://www.w3.org/2000/svg" xmlns:xlink="http://www.w3.org/1999/xlink" style="isolation:isolate" viewBox="0 0 258.2 200" width="258.2pt" height="200pt"><defs><clipPath id="_clipPath_x04nCpU8IquMk3Wiiy5dTCMKiKmHeXyX"><rect width="258.2" height="200"/></clipPath></defs><g clip-path="url(#_clipPath_x04nCpU8IquMk3Wiiy5dTCMKiKmHeXyX)"><clipPath id="_clipPath_8Iurtg8a2uHeECBmBBogu6otcx77qiuY"><rect x="0" y="0" width="258.182" height="200" transform="matrix(1,0,0,1,0,0)" fill="rgb(255,255,255)"/></clipPath><g clip-path="url(#_clipPath_8Iurtg8a2uHeECBmBBogu6otcx77qiuY)"><g><path d=" M 218.562 17.81 C 202.106 10.26 184.46 4.697 166.01 1.511 C 165.674 1.449 165.338 1.603 165.165 1.91 C 162.896 5.947 160.382 11.212 158.621 15.351 C 138.777 12.38 119.035 12.38 99.597 15.351 C 97.836 11.12 95.231 5.947 92.952 1.91 C 92.779 1.613 92.443 1.459 92.107 1.511 C 73.667 4.687 56.021 10.249 39.555 17.81 C 39.412 17.872 39.29 17.974 39.209 18.107 C 5.738 68.112 -3.431 116.888 1.067 165.06 C 1.087 165.295 1.22 165.521 1.403 165.664 C 23.486 181.881 44.877 191.727 65.872 198.253 C 66.208 198.355 66.564 198.232 66.777 197.956 C 71.744 191.174 76.171 184.023 79.966 176.503 C 80.19 176.063 79.976 175.54 79.519 175.366 C 72.497 172.702 65.811 169.455 59.379 165.767 C 58.87 165.469 58.829 164.742 59.297 164.393 C 60.651 163.379 62.005 162.324 63.297 161.259 C 63.531 161.064 63.857 161.023 64.132 161.146 C 106.385 180.437 152.129 180.437 193.883 161.146 C 194.158 161.013 194.484 161.054 194.728 161.248 C 196.021 162.314 197.374 163.379 198.738 164.393 C 199.206 164.742 199.175 165.469 198.667 165.767 C 192.235 169.526 185.549 172.702 178.517 175.356 C 178.059 175.53 177.855 176.063 178.079 176.503 C 181.956 184.012 186.383 191.163 191.258 197.945 C 191.461 198.232 191.828 198.355 192.164 198.253 C 213.26 191.727 234.651 181.881 256.734 165.664 C 256.928 165.521 257.05 165.305 257.07 165.07 C 262.453 109.379 248.053 61.003 218.897 18.117 C 218.826 17.974 218.704 17.872 218.562 17.81 Z  M 86.276 135.728 C 73.555 135.728 63.073 124.049 63.073 109.707 C 63.073 95.364 73.352 83.685 86.276 83.685 C 99.302 83.685 109.682 95.466 109.479 109.707 C 109.479 124.049 99.2 135.728 86.276 135.728 Z  M 172.065 135.728 C 159.344 135.728 148.862 124.049 148.862 109.707 C 148.862 95.364 159.14 83.685 172.065 83.685 C 185.091 83.685 195.471 95.466 195.268 109.707 C 195.268 124.049 185.091 135.728 172.065 135.728 Z " fill="rgb(88,101,242)"/></g></g></g></svg>