<?xml version="1.0" encoding="UTF-8" standalone="no"?>
<!-- Generator: Gravit.io -->
<svg xmlns="http://www.w3.org/2000/svg" xmlns:xlink="http://www.w3.org/1999/xlink" style="isolation:isolate" viewBox="0 0 60 60" width="60pt" height="60pt"><defs><clipPath id="_clipPath_POc3NVqmQtzTVTiF6BNZklKT9aaLFCiQ"><rect width="60" height="60"/></clipPath></defs><g clip-path="url(#_clipPath_POc3NVqmQtzTVTiF6BNZklKT9aaLFCiQ)"><path d=" M 58 26 L 58 58 C 58 58.679 2 58.061 2 58 Q 1.56 26.38 2 26 L 30 2 C 30.74 1.36 58 25.42 58 26 Z " fill="rgb(225,225,225)"/><path d=" M 58 58 C 58 58.74 2.3 58.18 2 58 Q 1.4 57.66 0.698 49.68 C 22.138 47.4 38.76 34.52 46 15 L 58 25.672 L 58 58 Z " fill="rgb(189,189,189)"/><path d=" M 42 24 C 42 17.382 36.618 12 30 12 C 23.382 12 18 17.382 18 24 C 18 30.618 23.382 36 30 36 C 32.642 36 35.134 35.168 37.208 33.592 C 38.088 32.926 38.26 31.67 37.592 30.79 C 36.926 29.912 35.674 29.74 34.79 30.406 C 33.416 31.45 31.76 32 30 32 C 25.588 32 22 28.412 22 24 C 22 19.588 25.588 16 30 16 C 34.412 16 38 19.588 38 24 C 38 24.002 38 24.002 38 24.004 C 38 24.006 38 24.006 38 24.008 C 38 24.56 37.552 25.008 37 25.008 C 36.448 25.008 36 24.56 36 24.008 C 36 24.008 36 24.006 36 24.006 C 36 24.004 36 24.002 36 24 C 36 20.692 33.308 18 30 18 C 26.692 18 24 20.692 24 24 C 24 27.308 26.692 30 30 30 C 31.676 30 33.19 29.306 34.28 28.194 C 35.064 28.706 35.996 29.01 37 29.01 C 39.756 29.01 42 26.766 42 24.01 C 42 24.008 42 24.008 42 24.006 C 42 24.004 42 24.002 42 24 Z  M 30 26 C 28.898 26 28 25.102 28 24 C 28 22.898 28.898 22 30 22 C 31.102 22 32 22.898 32 24 C 32 25.102 31.102 26 30 26 Z " fill="rgb(33,64,243)"/><path d=" M 41.94 22.92 C 40.68 25.02 39.28 27.04 37.76 28.94 C 40.16 28.58 42 26.5 42 24 C 42 23.64 41.98 23.26 41.94 22.92 Z  M 36.76 30.16 C 35.02 32.24 33.12 34.16 31.1 35.94 C 33.34 35.74 35.42 34.94 37.2 33.6 C 38.08 32.92 38.26 31.68 37.6 30.8 C 37.38 30.5 37.08 30.28 36.76 30.16 Z " fill="rgb(33,64,243)"/><path d=" M 59.302 24.482 L 31.302 0.482 C 30.552 -0.16 29.448 -0.16 28.698 0.482 L 0.698 24.482 C 0.254 24.862 0 25.416 0 26 L 0 58 C 0 59.106 0.896 60 2 60 L 58 60 C 59.104 60 60 59.106 60 58 L 60 26 C 60 25.416 59.746 24.862 59.302 24.482 Z  M 25.968 42 L 4 54.554 L 4 29.446 L 25.968 42 Z  M 30 44.304 L 50.468 56 L 9.532 56 L 30 44.304 Z  M 34.032 42 L 56 29.446 L 56 54.554 L 34.032 42 Z  M 30 4.634 L 54.544 25.672 L 30 39.696 L 5.456 25.672 L 30 4.634 Z " fill="rgb(255,0,60)"/></g></svg>
