<?xml version="1.0" encoding="UTF-8" standalone="no"?>
<svg xmlns="http://www.w3.org/2000/svg" xmlns:xlink="http://www.w3.org/1999/xlink" style="isolation:isolate" viewBox="0 0 65.5 64" width="65.5pt" height="64pt"><defs><clipPath id="_clipPath_vNtdmKUudIcnzeIULyyIuaP0A8djBPIu"><rect width="65.5" height="64"/></clipPath></defs><g clip-path="url(#_clipPath_vNtdmKUudIcnzeIULyyIuaP0A8djBPIu)"><rect width="65.5" height="64" style="fill:rgb(0,0,0)" fill-opacity="0"/><path d=" M 32.744 0 C 14.663 0 0 14.689 0 32.811 C 0 47.307 9.382 59.603 22.395 63.942 C 24.033 64.244 24.63 63.231 24.63 62.361 C 24.63 61.581 24.602 59.519 24.586 56.781 C 15.477 58.763 13.555 52.383 13.555 52.383 C 12.066 48.592 9.919 47.583 9.919 47.583 C 6.946 45.548 10.144 45.589 10.144 45.589 C 13.431 45.82 15.16 48.971 15.16 48.971 C 18.081 53.984 22.825 52.536 24.69 51.696 C 24.988 49.577 25.834 48.131 26.769 47.311 C 19.498 46.483 11.853 43.667 11.853 31.095 C 11.853 27.514 13.129 24.583 15.224 22.291 C 14.886 21.461 13.762 18.124 15.546 13.608 C 15.546 13.608 18.294 12.726 24.55 16.971 C 27.161 16.242 29.963 15.88 32.748 15.866 C 35.53 15.88 38.33 16.242 40.946 16.971 C 47.198 12.726 49.942 13.608 49.942 13.608 C 51.729 18.124 50.605 21.461 50.269 22.291 C 52.368 24.583 53.635 27.514 53.635 31.095 C 53.635 43.699 45.977 46.473 38.684 47.285 C 39.858 48.298 40.905 50.3 40.905 53.359 C 40.905 57.746 40.865 61.285 40.865 62.361 C 40.865 63.239 41.456 64.26 43.117 63.94 C 56.119 59.591 65.493 47.303 65.493 32.811 C 65.493 14.689 50.83 0 32.744 0" fill-rule="evenodd" fill="rgb(255,255,255)"/></g></svg>