<?xml version="1.0" encoding="UTF-8" standalone="no"?>
<!-- Generator: Gravit.io -->
<svg xmlns="http://www.w3.org/2000/svg" xmlns:xlink="http://www.w3.org/1999/xlink" style="isolation:isolate" viewBox="0 0 246.2 200" width="246.2pt" height="200pt"><defs><clipPath id="_clipPath_HkknpUJTZEUJnn7UrI8lpYTsupmoNmaF"><rect width="246.2" height="200"/></clipPath></defs><g clip-path="url(#_clipPath_HkknpUJTZEUJnn7UrI8lpYTsupmoNmaF)"><path d=" M 220.95 49.793 C 221.1 51.963 221.1 54.133 221.1 56.323 C 221.1 123.053 170.3 200.013 77.41 200.013 L 77.41 199.973 C 49.97 200.013 23.1 192.153 0 177.333 C 3.99 177.813 8 178.053 12.02 178.063 C 34.76 178.083 56.85 170.453 74.74 156.403 C 53.13 155.993 34.18 141.903 27.56 121.333 C 35.13 122.793 42.93 122.493 50.36 120.463 C 26.8 115.703 9.85 95.003 9.85 70.963 C 9.85 70.743 9.85 70.533 9.85 70.323 C 16.87 74.233 24.73 76.403 32.77 76.643 C 10.58 61.813 3.74 32.293 17.14 9.213 C 42.78 40.763 80.61 59.943 121.22 61.973 C 117.15 44.433 122.71 26.053 135.83 13.723 C 156.17 -5.397 188.16 -4.417 207.28 15.913 C 218.59 13.683 229.43 9.533 239.35 3.653 C 235.58 15.343 227.69 25.273 217.15 31.583 C 227.16 30.403 236.94 27.723 246.15 23.633 C 239.37 33.793 230.83 42.643 220.95 49.793 Z " fill="rgb(29,155,240)"/></g></svg>